# xmcd
#
# Track frame offsets:
#	150
#	12538
#	21180
#	32578
#	41757
#	51236
#	59273
#	74245
#	86023
#	98034
#	107313
#	117567
#	126803
#	136532
#	148823
#
# Disc length: 2094 seconds
# Revision: 0
# Processed by: cddbd v1.5.2PL0 Copyright (c) Steve Scherf et al.
# Submitted via: dBpowerAMP V12.0
#
DISCID=d5082c0f
DTITLE=Various Artist - Mojo presents Big Sensations
DYEAR=2018
DGENRE=R&B
TTITLE0=Bobby Parker - Watch Your Step
TTITLE1=King Curtis - Hot Rod
TTITLE2=The Egyptians - The Party Stomp
TTITLE3=Chris Kenner - I Like It Like That (Part 2)
TTITLE4=Mike Pedicin - Burnt Toast And Black Coffee
TTITLE5=Charles Sheffield - It's Your Voodoo Working
TTITLE6=Dale Cunningham - Too Young
TTITLE7=Juanita Nixon - Stop Knockin'
TTITLE8=McKinley "Soul" Mitchell - The Town I Live In
TTITLE9=James Ray - If You Gotta Make A Fool Of Somebody
TTITLE10=The Donays - Bad Boy
TTITLE11=Jan Bradley - Mama Didn't Lie
TTITLE12=Rosco Gordon - Just A Little Bit
TTITLE13=Ernie K-Doe - A Certain Girl
TTITLE14=Mose Allison - Eyesight To The Blind
EXTD=
EXTT0=
EXTT1=
EXTT2=
EXTT3=
EXTT4=
EXTT5=
EXTT6=
EXTT7=
EXTT8=
EXTT9=
EXTT10=
EXTT11=
EXTT12=
EXTT13=
EXTT14=
PLAYORDER=
